PathFileType	4	(X/Y/Z)	walk-thru1-1-TP.trc
DataRate	CameraRate	NumFrames	NumMarkers	Units	OrigDataRate	OrigDataStartFrame	OrigNumFrames
120.00	120.00	       4	60	mm	120.00	129	       514
Frame#	Time	Top.Head			Front.Head			Rear.Head			Jaw			C7			R.Clavicle			L.Clavicle			R.Shoulder			L.Shoulder			R.Scapula			L.Scapula			R.Scap.Inf			R.Biceps.Lateral			R.Elbow			R.Elbow.Medial			R.Forearm			R.Ulna			R.Radius			R.Wrist			R.Thumb.M1			R.Thumb.M2			R.Thumb.M3			R.Finger3.M1			R.Finger3.M2			R.Finger3.M3			L.Biceps.Lateral			L.Elbow			L.Elbow.Medial			L.Forearm			L.Ulna			L.Radius			L.Wrist			L.Thumb.M1			L.Thumb.M2			L.Thumb.M3			L.Finger3.M1			L.Finger3.M2			L.Finger3.M3			V.Sacral			R.ASIS			L.ASIS			R.Thigh			R.Thigh.Front			R.Knee			R.Knee.Medial			R.Shank			R.Ankle			R.Ankle.Medial			R.Heel			R.Toe			R.MedFoot			L.Thigh			L.Knee			L.Knee.Medial			L.Shank			L.Ankle			L.Ankle.Medial			L.Heel			L.Toe			L.MedFoot			V_mid_ASIS			V_R_Knee_JC			V_L_Knee_JC			V_R_Elbow_JC			V_L_Elbow_JC			V_R_Ankle_JC			V_L_Ankle_JC			V_R_Wrist_JC			V_L_Wrist_JC			V_R_ScaTrpz_1stMC_JC			V_R_1stMC_1stPP_JC			V_R_1stPP_1stDP_JC			V_R_LunCap_3rdMC_JC			V_R_3rdMC_3rdPP_JC			V_R_3rdPP_3rdMP_JC			V_R_3rdMP_3rdDP_JC			V_L_ScaTrpz_1stMC_JC			V_L_1stMC_1stPP_JC			V_L_1stPP_1stDP_JC			V_L_LunCap_3rdMC_JC			V_L_3rdMC_3rdPP_JC			V_L_3rdPP_3rdMP_JC			V_L_3rdMP_3rdPP_JC			V_ROOT_JC			V_R_Hip_JC			V_L_Hip_JC			V_R_GlenHum_JC			V_L_GlenHum_JC			V_ForeHead_Ctr			V_Vertex			V_Sagit_Lambdoid_Suture			V_R_FrontoTemp			V_L_FrontoTemporal			V_R_ParietalOccip			V_L_ParietalOcciptal			V_R_Temporal			V_L_Temporal			V_mid_FrontRearHead			V_mid_RLGlenHumCtrs			V_C7_vert			V_C1_vert			V_Mid_Hip			
		X1	Y1	Z1	X2	Y2	Z2	X3	Y3	Z3	X4	Y4	Z4	X5	Y5	Z5	X6	Y6	Z6	X7	Y7	Z7	X8	Y8	Z8	X9	Y9	Z9	X10	Y10	Z10	X11	Y11	Z11	X12	Y12	Z12	X13	Y13	Z13	X14	Y14	Z14	X15	Y15	Z15	X16	Y16	Z16	X17	Y17	Z17	X18	Y18	Z18	X19	Y19	Z19	X20	Y20	Z20	X21	Y21	Z21	X22	Y22	Z22	X23	Y23	Z23	X24	Y24	Z24	X25	Y25	Z25	X26	Y26	Z26	X27	Y27	Z27	X28	Y28	Z28	X29	Y29	Z29	X30	Y30	Z30	X31	Y31	Z31	X32	Y32	Z32	X33	Y33	Z33	X34	Y34	Z34	X35	Y35	Z35	X36	Y36	Z36	X37	Y37	Z37	X38	Y38	Z38	X39	Y39	Z39	X40	Y40	Z40	X41	Y41	Z41	X42	Y42	Z42	X43	Y43	Z43	X44	Y44	Z44	X45	Y45	Z45	X46	Y46	Z46	X47	Y47	Z47	X48	Y48	Z48	X49	Y49	Z49	X50	Y50	Z50	X51	Y51	Z51	X52	Y52	Z52	X53	Y53	Z53	X54	Y54	Z54	X55	Y55	Z55	X56	Y56	Z56	X57	Y57	Z57	X58	Y58	Z58	X59	Y59	Z59	X60	Y60	Z60	

129	1.067	440.96231	-31.71759	1767.51868	345.57855	-17.81508	1643.77075	575.13885	-30.53774	1699.30408	440.13599	-15.40335	1472.26514	669.41962	-8.23453	1574.40430	564.11627	105.98517	1494.08325	574.39587	-139.12700	1482.51697	608.32080	213.08514	1486.22058	630.29730	-239.39647	1485.13135	728.07288	92.28706	1485.11072	746.50452	-97.40623	1478.99817	760.14203	97.46015	1396.26233	651.75220	249.93724	1349.68640	724.57672	282.10886	1171.44568	727.72443	184.63402	1163.08228	634.51953	275.73587	1099.41052	703.51770	277.75552	967.77612	589.59485	268.47397	932.86761	591.09698	311.83783	900.15820	571.52289	259.03119	891.62335	561.23114	226.43623	850.13159	560.49707	221.61378	797.98712	572.56403	312.47528	816.83020	604.92609	254.15016	769.65729	626.55707	212.79924	811.21912	691.39014	-265.22934	1340.62146	759.58459	-273.80722	1173.82300	764.85376	-179.92793	1151.92407	680.04242	-282.19684	1088.16418	749.23822	-302.71808	988.12933	656.92114	-291.71021	924.44983	681.94104	-332.30112	894.51221	636.65326	-292.81128	868.05341	621.69586	-268.25293	821.78900	615.56653	-273.14954	771.76239	663.86810	-347.55209	794.69446	665.78680	-316.60080	735.87433	672.00513	-255.81725	736.02338	791.08020	-0.05677	1122.96741	588.61761	174.96881	1059.44592	613.64117	-176.17882	1065.88916	560.44354	157.35764	686.59900	481.97302	58.52237	601.90527	511.93347	123.18132	536.59210	537.24670	13.62334	534.46069	493.84192	78.08908	320.47003	569.05328	119.56586	86.74660	562.75232	15.47836	108.63713	634.47040	77.64754	50.24215	399.10065	67.21026	45.73098	464.90823	33.53918	82.09453	642.85858	-176.27797	674.20868	651.76221	-163.20529	520.77454	652.12500	-52.57087	502.54831	755.68494	-115.24367	333.70273	975.09149	-113.48858	187.70010	911.84814	-28.26499	183.26379	1016.90985	-39.51693	188.33806	867.23004	-92.04053	43.52890	875.18335	-65.38107	112.86218																																																																																																																															
130	1.075	435.05890	-29.54742	1768.84998	338.33420	-16.75517	1644.48083	569.36182	-29.44795	1699.94385	434.07813	-16.78983	1473.76660	663.69818	-8.81967	1575.72937	556.63367	106.39150	1494.46472	568.10138	-138.52605	1483.83557	600.85376	213.58569	1486.49182	624.98596	-239.42360	1485.50818	721.83740	93.72856	1486.22717	740.15076	-97.19137	1479.02515	753.53491	98.56997	1397.68433	643.23810	250.22838	1348.68274	716.64789	283.54510	1170.99097	718.88269	185.58739	1164.19299	627.54523	277.71759	1100.19458	695.76276	279.82245	967.82648	582.98352	266.53091	932.81781	583.33856	311.32227	901.19238	563.76367	259.71808	891.30402	553.76984	230.72372	848.78992	547.70966	226.24034	797.69940	563.28723	317.16016	818.81079	595.42932	260.15668	768.67163	619.79291	216.55592	806.56665	686.68024	-263.80978	1342.66467	755.54138	-272.18457	1175.85645	760.78156	-178.26915	1152.88647	675.76929	-281.19901	1090.15466	746.08044	-300.37869	988.91919	653.90729	-290.16437	926.19177	678.87183	-330.60001	895.96228	634.10376	-291.10910	869.22565	619.08258	-267.40399	822.53430	613.13269	-271.68530	772.46149	662.01208	-345.01053	795.31256	664.57581	-314.35953	736.61993	668.57422	-255.08850	736.36847	785.99908	1.14203	1123.24414	581.60938	175.58849	1060.19531	607.84155	-174.44302	1066.85730	555.31006	158.63275	687.46161	478.75650	59.03082	601.58478	508.75385	123.19936	536.47150	535.18188	14.46971	534.01642	491.57993	77.43932	320.23926	570.33130	121.19948	86.97571	562.05969	15.62803	108.71511	634.26599	77.76437	50.30667	399.13010	67.19418	45.34454	464.75790	33.23213	81.98274	632.00629	-176.10794	674.93646	638.44141	-163.92757	521.35022	637.72296	-53.13400	502.40448	744.34613	-115.72808	335.71173	965.76917	-116.85075	193.87617	903.98712	-30.35632	187.69569	1008.81793	-43.00459	197.23830	864.17719	-92.23203	45.94466	870.07520	-67.02620	115.45038																																																																																																																															
131	1.083	428.55890	-29.89246	1769.32837	332.86310	-16.43276	1646.23645	563.04865	-27.97370	1700.42297	427.81580	-15.52816	1473.71472	657.80029	-5.94398	1577.25769	549.47607	105.64118	1494.93677	562.59674	-138.21776	1484.50427	594.79645	216.04179	1486.95764	620.41888	-238.52853	1486.71826	715.67151	94.74997	1486.94006	734.82220	-94.82311	1480.62598	747.66479	100.92546	1398.60022	637.24738	250.71758	1349.02637	709.56744	283.09369	1171.31812	712.96771	187.00749	1164.15088	620.60083	276.37289	1100.38550	688.50702	280.06598	968.46661	574.48071	267.36127	933.26190	574.76996	312.69733	901.72260	555.84210	260.82153	891.99634	543.24329	232.17674	847.50452	540.69482	231.97441	794.32941	553.62030	318.87732	820.30292	585.25543	266.05640	766.40558	613.89838	221.75525	805.78247	682.31482	-262.48657	1343.04541	750.52759	-270.34207	1176.46790	755.36212	-175.14790	1153.70984	671.29639	-279.62225	1090.73132	743.26233	-298.71362	989.97162	650.59467	-286.73889	926.52655	676.36053	-328.51453	897.12592	630.78839	-289.84253	869.81805	615.87256	-265.62518	822.68579	610.85071	-269.19873	773.03888	659.47076	-344.42383	796.81848	662.42755	-312.83289	737.14435	667.07440	-253.16095	737.65472	779.38879	2.19584	1123.81677	575.53137	175.85800	1060.71655	602.38324	-174.40614	1067.19299	551.04205	157.84830	686.97815	475.35056	58.85593	601.08453	506.34317	123.47763	535.86761	531.56934	16.07677	533.28094	490.19147	78.07983	319.59525	569.85016	120.95475	87.12272	561.78229	15.71692	108.61054	633.28998	78.53596	50.66610	399.03217	67.04361	45.21112	464.48502	33.14581	81.96104	620.99603	-176.46542	675.76489	625.25348	-165.22169	522.59027	625.76831	-53.94735	503.81985	733.91888	-116.69697	337.93616	958.21783	-118.70867	198.06969	896.42194	-31.37174	193.43709	1000.79614	-45.20136	204.83284	861.28278	-94.05570	47.81476	863.48425	-67.34898	118.84738																																																																																																																															
132	1.092	423.70795	-28.10060	1770.13000	326.73151	-16.24400	1646.36926	556.96631	-26.70798	1700.49915	421.78125	-14.80990	1473.71936	652.45819	-6.73647	1578.58301	543.81848	107.47633	1495.04419	556.26886	-138.20653	1485.49060	587.12842	216.25946	1486.49573	613.65405	-237.74335	1487.49084	709.26813	97.36166	1488.14368	728.56580	-93.73701	1481.23865	740.30865	102.19223	1398.43262	629.43677	251.58293	1348.89929	701.83801	284.49820	1170.92310	705.22638	188.13748	1162.73767	612.96680	276.15253	1100.10596	680.67108	280.99994	968.10461	566.86981	266.86688	932.59186	567.50897	311.74606	903.33936	548.74463	260.04648	891.75623	534.90784	233.80510	844.75592	534.00293	236.10243	790.86249	544.44794	323.24887	823.03467	575.70630	275.20868	766.64417	604.50885	229.17137	801.89856	678.59344	-260.96445	1344.15857	747.09595	-267.15094	1178.18506	750.39233	-173.70584	1155.69788	667.40381	-277.25610	1091.31445	739.54004	-295.82993	991.30389	647.64380	-286.31088	927.01324	672.88940	-327.32144	897.67194	628.19818	-287.32779	870.08582	612.86621	-264.43964	823.04291	608.90674	-268.17908	773.46216	657.58575	-342.12033	797.14911	660.28308	-310.69101	737.96405	662.83691	-251.34657	738.34778	773.44482	2.84761	1124.90393	569.46710	176.76228	1060.87341	595.95215	-173.82845	1068.54150	547.13287	158.55359	687.60675	471.87454	59.32490	600.82629	502.72263	123.98457	535.45111	529.44421	16.92562	533.24158	489.05164	77.78993	319.25839	568.26654	120.15197	86.24165	561.80603	15.47710	108.66822	633.22986	78.62339	50.67801	399.03217	67.04361	45.21112	464.48538	33.12774	81.52564	608.63702	-176.81525	677.11444	612.26062	-164.25800	522.92920	609.72711	-55.37662	503.99994	721.94958	-117.51359	339.16129	949.40784	-120.36445	204.60863	887.71130	-32.81704	197.35164	991.30597	-47.71411	212.83109	857.72137	-94.26997	49.55174	857.94464	-67.24118	122.19763																																																																																																																															
